<svg width="670" height="114" viewBox="0 0 670 114" fill="none" xmlns="http://www.w3.org/2000/svg">
<path d="M69.9 0.90004V22.4H46.8V48.7001C44.4 48.2001 39.5 47.3 35.1 46.9L34 47.8C34 47.8 41.9 49.2 46.6 50.5L46.8 50.3V113.1H23.1V22.3H0V0.800049H69.9V0.90004Z" fill="#4F6EF7"/>
<path d="M110.8 113.2H127.5C107.6 60.4001 73.8999 45.7001 46.7999 43.6001C44.2999 43.4001 41.8999 43.3 39.5999 43.3L35.1999 47.0001C39.5999 47.4001 44.3999 48.3 46.8999 48.8C47.8999 49 48.4999 49.1001 48.4999 49.1001L46.8999 50.4001L46.6999 50.6001C42.0999 49.2001 34.0999 47.9001 34.0999 47.9001L27.3999 53.5001C28.1999 53.5001 36.5999 53.5 46.8999 58.3C60.4999 64.6 77.4999 79.2001 84.5999 113.2H103.8C99.1999 95.6001 90.0999 81.8 90.0999 81.8L96.3999 81.1001C105.3 93.5001 110.8 113.2 110.8 113.2ZM66.3999 59.2001C62.1999 56.1001 53.0999 52.7001 53.0999 52.7001L55.2999 50.9001C64.2999 53.6001 69.8999 57.0001 69.8999 57.0001L66.3999 59.2001ZM90.5999 73.9001L84.8999 74.8C77.5999 66.3 72.1999 62.8 72.1999 62.8L75.1999 60.6001C83.9999 65.1001 90.5999 73.9001 90.5999 73.9001Z" fill="#4F6EF7"/>
<path d="M136.3 0.90004L85.7001 51.5C79.8001 48 71.8001 44.9001 62.6001 42.2001L104.2 0.800049L136.3 0.90004Z" fill="#4F6EF7"/>
<path d="M159.3 75.5501V52.2501H152.3V43.6501L159.9 43.1501L161.3 29.8501H170.8V43.1501H183.2V52.2501H170.7V75.4501C170.7 81.2501 172.9 84.0501 177.6 84.0501C179.3 84.0501 181.3 83.4501 182.7 82.9501L184.6 91.3501C181.9 92.2501 178.5 93.1501 174.6 93.1501C163.4 93.2501 159.3 86.1501 159.3 75.5501Z" fill="#4F6EF7"/>
<path d="M193.4 43.25H202.8L203.7 51.95H204C207.5 45.55 212.6 42.05 217.9 42.05C220.4 42.05 222 42.35 223.4 43.05L221.4 52.95C219.7 52.45 218.4 52.1501 216.4 52.1501C212.5 52.1501 207.8 54.85 204.9 62.25V92.05H193.5L193.4 43.25Z" fill="#4F6EF7"/>
<path d="M225.3 78.9501C225.3 68.4501 234 63.0501 254 60.9501C253.8 55.7501 251.7 51.3501 245.1 51.3501C240.2 51.3501 235.7 53.5501 231.4 56.1501L227.2 48.5501C232.6 45.1501 239.5 42.1501 247.2 42.1501C259.4 42.1501 265.4 49.6501 265.4 63.2501V92.1501H256L255.1 86.7501H254.8C250.4 90.4501 245.4 93.3501 239.7 93.3501C231.2 93.2501 225.3 87.4501 225.3 78.9501ZM254 78.9501V67.9501C240.8 69.6501 236.4 73.0501 236.4 78.0501C236.4 82.3501 239.3 84.2501 243.4 84.2501C247.5 84.2501 250.4 82.2501 254 78.9501Z" fill="#4F6EF7"/>
<path d="M274.6 43.7501L281.8 43.2501H302.2V52.3501H274.7L274.6 43.7501ZM281.2 38.1502C281.2 28.0502 285.8 20.6501 297.4 20.6501C300.9 20.6501 304.2 21.4501 306.4 22.3501L304.2 30.8501C302.4 30.0501 300.6 29.7501 298.9 29.7501C294.8 29.7501 292.7 32.3501 292.7 37.9501V92.0502H281.2V38.1502Z" fill="#4F6EF7"/>
<path d="M309.4 28.1501C309.4 24.2501 312.4 21.6501 316.5 21.6501C320.6 21.6501 323.6 24.2501 323.6 28.1501C323.6 32.0501 320.6 34.6501 316.5 34.6501C312.4 34.6501 309.4 31.9501 309.4 28.1501ZM310.7 43.2501H322.2V92.0501H310.7V43.2501Z" fill="#4F6EF7"/>
<path d="M336.8 21.8501H348V65.7501H348.3L366.4 43.2501H378.9L362.2 63.1501L380.7 92.0501H368.3L355.7 70.8501L348.1 79.6501V92.0501H336.9L336.8 21.8501Z" fill="#4F6EF7"/>
<path d="M388.7 21.8501H399.9V65.7501H400.2L418.3 43.2501H430.8L414.1 63.1501L432.6 92.0501H420.2L407.6 70.8501L400 79.6501V92.0501H388.7V21.8501Z" fill="#4F6EF7"/>
<path d="M440.5 79.4501V21.8501H452V80.0501C452 82.8501 453.3 83.8501 454.5 83.8501C455 83.8501 455.4 83.8501 456.3 83.6501L457.7 92.1501C456.3 92.7501 454.4 93.1501 451.7 93.1501C443.5 93.2501 440.5 87.9501 440.5 79.4501Z" fill="#4F6EF7"/>
<path d="M464.9 78.9501C464.9 68.4501 473.6 63.0501 493.6 60.9501C493.4 55.7501 491.3 51.3501 484.7 51.3501C479.8 51.3501 475.3 53.5501 471 56.1501L466.8 48.5501C472.2 45.1501 479.1 42.1501 486.8 42.1501C499 42.1501 505 49.6501 505 63.2501V92.1501H495.6L494.7 86.7501H494.4C490 90.4501 485 93.3501 479.3 93.3501C470.7 93.2501 464.9 87.4501 464.9 78.9501ZM493.6 78.9501V67.9501C480.4 69.6501 476 73.0501 476 78.0501C476 82.3501 478.9 84.2501 483 84.2501C487.1 84.2501 489.9 82.2501 493.6 78.9501Z" fill="#4F6EF7"/>
<path d="M518.8 43.25H528.2L529.1 51.95H529.4C532.9 45.55 538.1 42.05 543.3 42.05C545.8 42.05 547.3 42.35 548.8 43.05L546.8 52.95C545.1 52.45 543.8 52.1501 541.8 52.1501C537.9 52.1501 533.2 54.85 530.3 62.25V92.05H518.8V43.25Z" fill="#4F6EF7"/>
<path d="M547.6 85.5503C547.6 81.0503 550.8 77.7502 555 77.7502C559.2 77.7502 562.4 81.0503 562.4 85.5503C562.4 90.0503 559.2 93.2502 555 93.2502C550.8 93.2502 547.6 89.9503 547.6 85.5503Z" fill="#4F6EF7"/>
<path d="M577.8 44.3501H581.5L582 51.7501H582.2C587.1 46.8501 592 43.1501 598.6 43.1501C608.5 43.1501 613 49.1501 613 61.4501V92.0501H608.7V62.0501C608.7 51.9501 605.5 47.1501 597.8 47.1501C592.1 47.1501 588 50.1501 582.2 56.1501V92.1501H577.8V44.3501Z" fill="#4F6EF7"/>
<path d="M626.7 68.2501C626.7 52.2501 636.7 43.1501 648.1 43.1501C659.5 43.1501 669.5 52.3501 669.5 68.2501C669.5 84.1501 659.5 93.2501 648.1 93.2501C636.7 93.2501 626.7 84.0501 626.7 68.2501ZM664.9 68.2501C664.9 55.6501 657.7 46.9501 648.1 46.9501C638.5 46.9501 631.3 55.6501 631.3 68.2501C631.3 80.8501 638.5 89.3501 648.1 89.3501C657.7 89.3501 664.9 80.8501 664.9 68.2501Z" fill="#4F6EF7"/>
</svg>
