<svg width="40" height="40" viewBox="0 0 40 40" fill="none" xmlns="http://www.w3.org/2000/svg">
<rect width="40" height="40" rx="20" fill="#A87FFF" fill-opacity="0.2"/>
<path opacity="0.5" fill-rule="evenodd" clip-rule="evenodd" d="M10 20C10 14.4772 14.4772 10 20 10C25.5228 10 30 14.4772 30 20C30 25.5228 25.5228 30 20 30C14.4772 30 10 25.5228 10 20ZM19.25 13C19.25 12.5858 19.5858 12.25 20 12.25C24.2802 12.25 27.75 15.7198 27.75 20C27.75 24.2802 24.2802 27.75 20 27.75C15.7198 27.75 12.25 24.2802 12.25 20C12.25 19.5858 12.5858 19.25 13 19.25C13.4142 19.25 13.75 19.5858 13.75 20C13.75 23.4518 16.5482 26.25 20 26.25C23.4518 26.25 26.25 23.4518 26.25 20C26.25 16.5482 23.4518 13.75 20 13.75C19.5858 13.75 19.25 13.4142 19.25 13ZM20 15.25C19.5858 15.25 19.25 15.5858 19.25 16C19.25 16.4142 19.5858 16.75 20 16.75C21.7949 16.75 23.25 18.2051 23.25 20C23.25 21.7949 21.7949 23.25 20 23.25C19.5858 23.25 19.25 23.5858 19.25 24C19.25 24.4142 19.5858 24.75 20 24.75C22.6234 24.75 24.75 22.6234 24.75 20C24.75 17.3766 22.6234 15.25 20 15.25Z" fill="#A87FFF"/>
<path d="M19.25 13C19.25 12.5858 19.5858 12.25 20 12.25C24.2802 12.25 27.75 15.7198 27.75 20C27.75 24.2802 24.2802 27.75 20 27.75C15.7198 27.75 12.25 24.2802 12.25 20C12.25 19.5858 12.5858 19.25 13 19.25C13.4142 19.25 13.75 19.5858 13.75 20C13.75 23.4518 16.5482 26.25 20 26.25C23.4518 26.25 26.25 23.4518 26.25 20C26.25 16.5482 23.4518 13.75 20 13.75C19.5858 13.75 19.25 13.4142 19.25 13Z" fill="#A87FFF"/>
<path d="M20 15.25C19.5858 15.25 19.25 15.5858 19.25 16C19.25 16.4142 19.5858 16.75 20 16.75C21.7949 16.75 23.25 18.2051 23.25 20C23.25 21.7949 21.7949 23.25 20 23.25C19.5858 23.25 19.25 23.5858 19.25 24C19.25 24.4142 19.5858 24.75 20 24.75C22.6234 24.75 24.75 22.6234 24.75 20C24.75 17.3766 22.6234 15.25 20 15.25Z" fill="#A87FFF"/>
</svg>
