<svg width="40" height="40" viewBox="0 0 40 40" fill="none" xmlns="http://www.w3.org/2000/svg">
<rect width="40" height="40" rx="20" fill="#4F6EF7" fill-opacity="0.2"/>
<path fill-rule="evenodd" clip-rule="evenodd" d="M21.1092 21.5004C20.4699 20.9556 19.5297 20.9556 18.8905 21.5004C18.6165 21.7338 18.276 21.8749 17.9172 21.9035C17.08 21.9703 16.4152 22.6351 16.3483 23.4724C16.3197 23.8311 16.1786 24.1717 15.9452 24.4457C15.4004 25.0849 15.4004 26.0251 15.9452 26.6643C16.1786 26.9383 16.3197 27.2789 16.3483 27.6376C16.4152 28.4748 17.08 29.1397 17.9172 29.2065C18.276 29.2351 18.6165 29.3762 18.8905 29.6096C19.5297 30.1544 20.4699 30.1544 21.1092 29.6096C21.3831 29.3762 21.7237 29.2351 22.0824 29.2065C22.9197 29.1397 23.5845 28.4748 23.6513 27.6376C23.6799 27.2789 23.821 26.9383 24.0544 26.6643C24.5992 26.0251 24.5992 25.0849 24.0544 24.4457C23.821 24.1717 23.6799 23.8311 23.6513 23.4724C23.5845 22.6351 22.9197 21.9703 22.0824 21.9035C21.7237 21.8749 21.3831 21.7338 21.1092 21.5004ZM22.0117 25.1035C22.3146 24.8208 22.3309 24.3463 22.0483 24.0434C21.7657 23.7406 21.2911 23.7243 20.9883 24.0069L19.3571 25.5293L19.0117 25.2069C18.7089 24.9243 18.2343 24.9406 17.9517 25.2434C17.6691 25.5463 17.6855 26.0208 17.9883 26.3035L18.8454 27.1035C19.1336 27.3724 19.5807 27.3724 19.8689 27.1035L22.0117 25.1035Z" fill="#4F6EF7"/>
<path opacity="0.5" d="M10 20V16C10 13.1716 10 11.7574 10.8787 10.8787C11.7574 10 13.1716 10 16 10H24C26.8284 10 28.2426 10 29.1213 10.8787C30 11.7574 30 13.1716 30 16V20C30 22.8284 30 24.2426 29.1213 25.1213C28.2855 25.9571 26.9652 25.9979 24.4042 25.9999C24.5467 25.4702 24.4302 24.8862 24.0544 24.4453C23.821 24.1714 23.6799 23.8308 23.6513 23.472C23.5845 22.6348 22.9197 21.97 22.0824 21.9031C21.7237 21.8745 21.3831 21.7334 21.1092 21.5C20.4699 20.9552 19.5297 20.9552 18.8905 21.5C18.6165 21.7334 18.276 21.8745 17.9172 21.9031C17.08 21.97 16.4152 22.6348 16.3483 23.472C16.3197 23.8308 16.1786 24.1714 15.9452 24.4453C15.5695 24.8862 15.4529 25.4702 15.5954 25.9999C13.0347 25.9979 11.7144 25.9571 10.8787 25.1213C10 24.2426 10 22.8284 10 20Z" fill="#4F6EF7"/>
<path d="M16.25 14C16.25 13.5858 16.5858 13.25 17 13.25H23C23.4142 13.25 23.75 13.5858 23.75 14C23.75 14.4142 23.4142 14.75 23 14.75H17C16.5858 14.75 16.25 14.4142 16.25 14Z" fill="#4F6EF7"/>
<path d="M15 16.75C14.5858 16.75 14.25 17.0858 14.25 17.5C14.25 17.9142 14.5858 18.25 15 18.25H25C25.4142 18.25 25.75 17.9142 25.75 17.5C25.75 17.0858 25.4142 16.75 25 16.75H15Z" fill="#4F6EF7"/>
</svg>
