<svg width="40" height="40" viewBox="0 0 40 40" fill="none" xmlns="http://www.w3.org/2000/svg">
<rect width="40" height="40" rx="20" fill="#2FD36F" fill-opacity="0.2"/>
<path opacity="0.5" d="M20.0002 24C14.2402 24 13.2198 18.2595 13.0391 13.7065C12.9888 12.44 12.9636 11.8067 13.4394 11.2208C13.9151 10.6349 14.4844 10.5389 15.6232 10.3467C16.7472 10.1571 18.2166 10 20.0002 10C21.7837 10 23.2531 10.1571 24.3771 10.3467C25.5159 10.5389 26.0852 10.6349 26.5609 11.2208C27.0367 11.8067 27.0115 12.44 26.9612 13.7065C26.7805 18.2595 25.7601 24 20.0002 24Z" fill="#2FD36F"/>
<path d="M25.6404 20.422L28.4569 18.8572C29.2093 18.4392 29.5855 18.2302 29.7927 17.8781C29.9999 17.526 29.9999 17.0956 29.9999 16.2349L29.9999 16.1623C30 15.1187 30 14.5969 29.7168 14.2041C29.4337 13.8112 28.9387 13.6462 27.9486 13.3162L27 13L26.9831 13.0846C26.9784 13.2739 26.9702 13.4801 26.9612 13.7065C26.8729 15.9308 26.5842 18.4387 25.6404 20.422Z" fill="#2FD36F"/>
<path d="M13.0391 13.7065C13.1274 15.931 13.4161 18.4389 14.3601 20.4223L11.543 18.8572C10.7906 18.4392 10.4144 18.2302 10.2072 17.8781C10 17.526 10 17.0956 10 16.2349L10 16.1623C9.99997 15.1187 9.99996 14.5969 10.2831 14.2041C10.5662 13.8112 11.0613 13.6462 12.0513 13.3162L12.9999 13L13.0173 13.0867C13.022 13.2754 13.0301 13.4809 13.0391 13.7065Z" fill="#2FD36F"/>
<path fill-rule="evenodd" clip-rule="evenodd" d="M13.25 30C13.25 29.5858 13.5858 29.25 14 29.25H26C26.4142 29.25 26.75 29.5858 26.75 30C26.75 30.4142 26.4142 30.75 26 30.75H14C13.5858 30.75 13.25 30.4142 13.25 30Z" fill="#2FD36F"/>
<path opacity="0.5" d="M23.4577 29.25H16.5425L16.8393 27.5002C16.9328 27.0327 17.3432 26.6963 17.8199 26.6963H22.1803C22.657 26.6963 23.0674 27.0327 23.1609 27.5002L23.4577 29.25Z" fill="#2FD36F"/>
<path d="M20.0002 24.0002C19.7406 24.0002 19.4907 23.9885 19.25 23.9658V26.6963H20.75V23.9658C20.5094 23.9885 20.2596 24.0002 20.0002 24.0002Z" fill="#2FD36F"/>
<path d="M19.1459 14.0225C19.5259 13.3408 19.7159 13 20 13C20.2841 13 20.4741 13.3408 20.8541 14.0225L20.9524 14.1989C21.0603 14.3926 21.1143 14.4894 21.1985 14.5533C21.2827 14.6172 21.3875 14.641 21.5972 14.6884L21.7881 14.7316C22.526 14.8986 22.895 14.982 22.9828 15.2643C23.0706 15.5466 22.819 15.8407 22.316 16.429L22.1858 16.5812C22.0429 16.7483 21.9714 16.8319 21.9392 16.9353C21.9071 17.0387 21.9179 17.1502 21.9395 17.3733L21.9592 17.5763C22.0352 18.3612 22.0733 18.7536 21.8435 18.9281C21.6136 19.1025 21.2682 18.9435 20.5773 18.6254L20.3986 18.5431C20.2022 18.4527 20.1041 18.4075 20 18.4075C19.8959 18.4075 19.7978 18.4527 19.6014 18.5431L19.4227 18.6254C18.7318 18.9435 18.3864 19.1025 18.1565 18.9281C17.9267 18.7536 17.9648 18.3612 18.0408 17.5763L18.0605 17.3733C18.0821 17.1502 18.0929 17.0387 18.0608 16.9353C18.0286 16.8319 17.9571 16.7483 17.8142 16.5812L17.684 16.429C17.181 15.8407 16.9294 15.5466 17.0172 15.2643C17.105 14.982 17.474 14.8986 18.2119 14.7316L18.4028 14.6884C18.6125 14.641 18.7173 14.6172 18.8015 14.5533C18.8857 14.4894 18.9397 14.3926 19.0476 14.1989L19.1459 14.0225Z" fill="#2FD36F"/>
</svg>
